# xmcd
#
# Track frame offsets:
#	150
#	16132
#	31312
#	47606
#	62705
#	81741
#	98105
#	115520
#	133515
#	148843
#	162822
#	178483
#	195571
#	207527
#	224040
#	237622
#
# Disc length: 3392 seconds
#
# Revision: 3
# Processed by: cddbd v1.5.2PL0 Copyright (c) Steve Scherf et al.
# Submitted via: EasyCDDAExtractor 15.3.0.1
#
DISCID=f20d3e10
DTITLE=Shania Twain - Now (Deluxe Edition)
DYEAR=2017
DGENRE=Country
TTITLE0=Swingin' With My Eyes Closed
TTITLE1=Home Now
TTITLE2=Light Of My Life
TTITLE3=Poor Me
TTITLE4=Who's Gonna Be Your Girl
TTITLE5=More Fun
TTITLE6=I'm Alright
TTITLE7=Let's Kiss And Make Up
TTITLE8=Where Do You Think You're Going
TTITLE9=Roll Me On The River
TTITLE10=We Got Something They Don't
TTITLE11=Because Of You
TTITLE12=You Can't Buy Love
TTITLE13=Life's About To Get Good
TTITLE14=Soldier
TTITLE15=All In All
EXTD=
EXTT0=
EXTT1=
EXTT2=
EXTT3=
EXTT4=
EXTT5=
EXTT6=
EXTT7=
EXTT8=
EXTT9=
EXTT10=
EXTT11=
EXTT12=
EXTT13=
EXTT14=
EXTT15=
PLAYORDER=
